<?xml version="1.0"?>
<svg xmlns="http://www.w3.org/2000/svg" width="50" height="50" viewBox="0 0 50 50">
    <path d="M 32 4 L 32 7 L 32 10 L 34 10 L 34 8 L 38 8 L 38 4 L 32 4 z M 34 10 L 34 17.28125 C 34.596 17.62825 35 18.261 35 19 C 35 20.104 34.104 21 33 21 C 31.896 21 31 20.104 31 19 C 31 18.262 31.404 17.62825 32 17.28125 L 32 10 L 22.3125 10 C 25.1465 11.992 27 15.28 27 19 L 27 34 L 3 34 C 2.448 34 2 34.447 2 35 C 2 35.553 2.448 36 3 36 L 28 36 L 47 36 C 47.553 36 48 35.553 48 35 L 48 19 C 48 14.038 43.963 10 39 10 L 34 10 z M 16.5 10.03125 C 11.771 10.29325 8 14.207 8 19 L 8 32 L 15 32 L 15 20.28125 L 25 27.15625 L 25 24.71875 L 15.21875 18 L 24.9375 18 C 24.4555 13.673 20.895 10.27525 16.5 10.03125 z M 28 38 L 28 46 L 34 46 L 34 38 L 28 38 z"/>
</svg>
